<?xml version="1.0" encoding="utf-8"?>
<!-- Generator: Adobe Illustrator 15.0.0, SVG Export Plug-In . SVG Version: 6.00 Build 0)  -->
<!DOCTYPE svg PUBLIC "-//W3C//DTD SVG 1.1//EN" "http://www.w3.org/Graphics/SVG/1.1/DTD/svg11.dtd">
<svg version="1.1" id="Layer_1" xmlns="http://www.w3.org/2000/svg" xmlns:xlink="http://www.w3.org/1999/xlink" x="0px" y="0px"
	 width="100px" height="100px" viewBox="0 0 100 100" enable-background="new 0 0 100 100" xml:space="preserve">
<circle fill="#CC0000" cx="50" cy="49.67" r="49.357"/>
<path fill="#FFFFFF" d="M25.467,50.273l-0.705,2.061l8.049,7.504c1.357,1.268,1.195,3.061,0.521,4.463
	c-0.416,0.855-0.934,1.482-1.398,1.75L11.615,46.533l-0.094,0.184c-1.664,3.438-0.598,5.645,0.939,6.543
	c0.719,0.41,1.588,0.527,2.26,0.33c-0.043,0.701-0.203,1.289-0.457,1.814c-0.934,1.932-2.959,2.205-4.596,1.264
	c-2.055-1.193-3.535-4.365-1.375-8.822c1.52-3.141,4.518-5.512,4.516-7.592c0.383-0.262,0.781-0.221,1.111-0.033
	c0.619,0.354,1.055,1.188,0.635,2.059l-0.164,0.34l8.855,8.254l0.174-1.053C23.314,43.036,18.98,38.51,15.72,35.46
	c0.006-0.523,0.195-1.096,0.416-1.547c0.604-1.25,2.014-2.17,3.227-1.475c3.074,1.777,4.943,6.482,5.828,12.359
	c5.244,2.305,12.221,4.701,12.811,1.65c0.75-3.887-1.791-5.5-2.33-6.719c0.365-0.316,0.596-0.646,0.889-0.469
	c1.078,0.623,5.135,7.773,3.395,11.357C37.844,54.959,30.822,52.793,25.467,50.273z"/>
<path fill="#FFFFFF" d="M33.217,19.898c0.148-1.188,0.822-2.221,1.641-2.906c0.6-0.488,1.266-0.775,1.822-0.814l4.477,13.82
	c0.75,2.35,1.648,2.545,2.5,1.836c1.223-1.014,2.131-3.084,2.451-4.688c0.465-0.119,0.84,0.043,1.055,0.412
	c0.129,0.244,0.195,0.609,0.143,1.027c-0.469,3.193-1.893,6.832-3.678,8.307c-1.555,1.297-3.555,1.793-5.143-1.08
	c-0.18,3.285-1.066,6.244-2.943,7.811c-3.436,2.854-6.256-0.311-7.566-2.615c-3.588-6.285-3.424-15.648,1.166-19.457
	C30.619,20.314,31.932,19.801,33.217,19.898z M33.582,22.24c-0.691,0.277-1.223,0.604-1.719,1.016
	c-3.992,3.316-2.174,10.188,0.057,14.102c1.025,1.795,2.234,1.953,3.26,1.107c1.057-0.881,1.906-2.969,2.043-5.045L33.582,22.24z"/>
<path fill="#FFFFFF" d="M66.99,19.609c-0.76,0.822-5.168,0.5-7.885,3.85c-0.349,0.43,0.434,1.072,0.483,1.75
	c0.254,5.746-4.641,11.727-9.66,12.643c-2.861,0.518-5.119-1.055-5.479-6.361c-0.625-8.004,1.756-20.625,9.282-21.994
	c2.438-0.443,4.027,0.535,4.22,2.943c0.192,3.027-3.013,7.869-9.002,16.664c0.01,0.344,0.01,0.648,0.043,0.949
	c0.277,3.705,1.608,4.492,2.926,4.256c3.381-0.609,3.938-6.082,3.179-8.467c-0.642,0.154-1.246,0.188-1.578,0.09
	c-0.963-1.734-0.226-3.596,2.045-4.008c0.838-0.15,1.668-0.041,2.324,0.305c1.307-1.197,2.358-2.857,9.771-4.168
	C68.607,17.895,67.479,19.059,66.99,19.609z M49.031,26.248c4.42-7.084,6.211-10.93,6.07-12.867
	c-0.101-1.092-0.347-1.695-1.183-1.547C51.092,12.354,49.416,20.434,49.031,26.248z"/>
<path fill="#FFFFFF" d="M65.305,21.475c0.375-0.512,0.338-0.893,0.037-1.006c-0.16-0.064-0.426,0-0.84,0.168
	c-0.316-0.455-0.078-1.639,0.82-1.949c1.545-0.529,3.059-0.828,4.451-0.293c1.203,0.453,1.643,1.33,0.764,2.562l-6.395,9.465
	c-0.709,1.01-0.802,1.967,0.295,2.385c0.965,0.375,2.012,0.186,3.1-0.299l6.676-9.822c1.033-1.51,2.547-1.629,3.75-1.18
	c0.594,0.232,1.086,0.623,1.357,1.057L70.52,35.584c-0.312,0.455-0.615,0.92-0.914,1.338c2.238-0.26,4.447-0.65,6.066-1.279
	c0.305,0.656,0.066,1.475-0.715,1.791c-0.846,0.342-3.789,1.08-6.65,1.355c-4.334,6.043-9.768,12.115-15.688,9.854
	c-1.855-0.707-3.416-2.949-2.166-5.902c1.912-4.521,7.348-4.938,13.984-5.463c0.596-0.768,1.172-1.586,1.852-2.447
	c-2.049,1.256-4.043,1.859-5.703,1.225c-3.291-1.252-2.016-4.814,0.055-7.881L65.305,21.475z M62.773,39.369
	c-4.834,0.557-8.279,1.221-9.431,3.93c-0.528,1.244,0.224,2.025,0.656,2.191C56.291,46.357,58.641,44.453,62.773,39.369z"/>
<path fill="#FFFFFF" d="M86.164,32.979c3.209,1.52,4.227,3.406,3.115,5.713c-0.965,1.99-2.707,2.295-4.17,1.588
	c-0.523-0.24-1.08-0.684-1.336-1.24c0.838-0.648,1.508-1.514,1.748-2.008c0.319-0.674,0.018-1.26-0.967-1.721
	c-2.216-1.055-6.617,1.514-9.084,6.629c-1.285,2.662-0.32,4.562,1.698,5.525c1.726,0.828,3.354,0.686,4.647-0.273
	c0.744,0.354,1.013,0.916,0.713,1.516c-0.94,1.957-5.635,2.429-9.108,0.773c-3.627-1.727-5.366-4.658-3.121-9.307
	C72.943,34.707,80.252,30.158,86.164,32.979z"/>
<path fill="#FFFFFF" d="M84.73,60.102c-1.418,1.558-1.437,2.521-0.785,2.836c0.604,0.289,1.613,0.256,2.854-0.723
	c0.638,0.305,0.793,0.822,0.443,1.4c-1.459,2.375-5.15,2.639-7.013,1.744c-1.653-0.816-3.393-2.894,0.164-6.83l1.568-1.707
	L80.4,56.061c-2.866,2.082-8.028,5.383-10.657,4.19c-1.384-0.627-1.541-2.467-0.035-4.944c1.004-1.636,2.381-1.578,3.619-0.978
	c0.394,0.19,0.815,0.614,1.062,1.133c-1.021,0.777-1.785,1.733-2.199,2.406c1.631-0.127,3.371-0.515,6.576-2.873
	c-1.771-1.613-1.74-3.847-0.562-5.775c2.528-4.146,7.394-4.061,10.51-2.541c3.021,1.469,4.334,4.262,1.033,7.895L84.73,60.102z
	 M82.07,54.451l1.397,0.68l3.216-3.498c1.539-1.67,1.311-2.713,0.479-3.115c-1.761-0.861-4.006,0.783-5.146,2.559
	C81.166,52.42,80.941,53.902,82.07,54.451z"/>
<path fill="#FFFFFF" d="M50.396,64.586c-3.027,1.123-6.109,1.514-8.283,0.967c-1.117-0.279-1.4,0.277-1.324,0.508
	c0.115,0.332,0.271,0.646,0.465,0.938c1.666,2.524,6.039,3.467,10.43,2.08c4.377-1.386,7.137-4.899,6.705-8.248
	c-0.049-0.401-0.781-1.377-1.5-0.492C55.516,62.018,53.154,63.562,50.396,64.586z"/>
<path fill="#FFFFFF" d="M49.604,63.07c2.969-1.104,5.434-2.66,7.184-3.906c0.351-0.25,0.899-1.107,0.055-1.689
	c-2.391-1.643-6.051-2.235-9.797-0.641c-3.418,1.455-5.945,3.975-6.781,6.457c-0.441,1.311,0.457,1.592,0.902,1.555
	C43.344,64.66,46.426,64.248,49.604,63.07z"/>
</svg>
